<svg xmlns="http://www.w3.org/2000/svg" xmlns:xlink="http://www.w3.org/1999/xlink" width="794" zoomAndPan="magnify" viewBox="0 0 595.5 842.249979" height="1123" preserveAspectRatio="xMidYMid meet" version="1.0"><defs><clipPath id="154ed307d1"><path d="M 0.203125 204 L 172 204 L 172 334 L 0.203125 334 Z M 0.203125 204 " clip-rule="nonzero"/></clipPath><clipPath id="2dfb6d38e0"><path d="M 196 0.402344 L 297 0.402344 L 297 123 L 196 123 Z M 196 0.402344 " clip-rule="nonzero"/></clipPath><clipPath id="6afe1d32f4"><path d="M 260 301 L 411 301 L 411 433.824219 L 260 433.824219 Z M 260 301 " clip-rule="nonzero"/></clipPath><clipPath id="78c203c0ba"><path d="M 284 37 L 475.519531 37 L 475.519531 174 L 284 174 Z M 284 37 " clip-rule="nonzero"/></clipPath><clipPath id="7f68aec4ea"><rect x="0" width="477" y="0" height="435"/></clipPath></defs><g transform="matrix(1, 0, 0, 1, 60, 313)"><g clip-path="url(#7f68aec4ea)"><g clip-path="url(#154ed307d1)"><path fill="#545454" d="M 105.234375 237.230469 C 106.199219 235.851562 107.234375 234.265625 106.890625 232.613281 C 106.269531 229.09375 101.164062 229.164062 97.71875 230.199219 C 93.234375 231.507812 88.753906 232.820312 84.269531 234.128906 C 89.097656 229.785156 94.683594 226.199219 100.683594 223.648438 C 105.855469 221.441406 113.714844 221.304688 115.09375 226.75 C 116.679688 233.164062 125.4375 233.851562 132.058594 233.714844 C 140.886719 233.507812 149.917969 234.40625 157.710938 238.542969 C 165.433594 242.679688 171.574219 250.75 171.226562 259.574219 C 170.882812 271.574219 159.574219 279.988281 149.4375 286.46875 C 133.4375 296.742188 117.507812 306.949219 101.578125 317.15625 C 94.683594 321.570312 87.441406 326.398438 84.203125 333.84375 C 74.339844 325.222656 70.132812 310.605469 73.925781 297.984375 C 78.0625 300.605469 81.855469 303.777344 85.234375 307.363281 C 85.855469 305.019531 86.40625 302.605469 87.027344 300.261719 C 97.027344 301.089844 105.507812 293.089844 111.578125 285.089844 C 117.644531 277.089844 123.4375 267.988281 132.886719 264.472656 C 136.609375 263.09375 140.679688 262.679688 144.265625 260.953125 C 147.78125 259.230469 150.882812 255.4375 149.988281 251.507812 C 149.296875 248.886719 146.953125 246.957031 144.472656 245.714844 C 140.679688 243.851562 136.058594 243.09375 132.265625 244.816406 C 128.679688 246.542969 126.265625 250.058594 122.886719 252.128906 C 119.4375 254.128906 113.648438 253.230469 113.371094 249.300781 C 111.507812 249.164062 110.542969 251.4375 110.679688 253.300781 C 110.886719 255.09375 111.578125 257.023438 110.886719 258.679688 C 109.921875 261.09375 106.820312 261.574219 104.40625 262.539062 C 101.992188 263.574219 100.0625 267.160156 102.335938 268.472656 C 97.371094 267.988281 92.40625 266.539062 87.925781 264.332031 C 86.613281 265.78125 85.582031 267.574219 85.027344 269.503906 C 81.996094 267.574219 77.855469 271.089844 77.855469 274.675781 C 77.925781 278.332031 80.476562 281.367188 82.960938 283.988281 C 85.441406 286.605469 88.0625 289.433594 88.476562 293.019531 C 83.304688 296.125 76.546875 294.605469 71.238281 291.777344 C 65.925781 288.953125 61.308594 284.882812 55.789062 282.46875 C 50.34375 280.125 44.34375 279.574219 38.6875 277.78125 C 24.691406 273.4375 14.070312 262.265625 4.140625 251.507812 C 1.933594 249.164062 -0.480469 246.058594 0.484375 242.957031 C 1.105469 241.164062 2.691406 239.851562 4.277344 238.75 C 14.550781 231.371094 25.515625 225.164062 36.480469 218.890625 C 42.136719 215.71875 47.789062 212.546875 53.445312 209.304688 C 58.203125 206.613281 63.582031 203.789062 69.03125 204.960938 C 64.132812 207.785156 59.167969 210.753906 55.515625 215.027344 C 51.859375 219.304688 49.582031 225.234375 51.167969 230.679688 C 51.515625 231.921875 52.066406 233.234375 51.789062 234.472656 C 51.445312 235.992188 49.996094 236.957031 48.757812 237.785156 C 40.894531 242.816406 32.550781 250.265625 33.515625 259.574219 C 34.34375 267.78125 42.757812 273.644531 51.03125 274.125 C 59.238281 274.609375 67.167969 270.882812 74.132812 266.472656 C 86.269531 258.816406 96.890625 248.816406 105.234375 237.230469 M 75.925781 282.125 C 74.683594 280.125 73.304688 277.988281 71.238281 276.746094 C 67.652344 274.746094 63.238281 276.054688 59.375 277.367188 C 65.238281 282.953125 71.996094 288.953125 80.0625 288.882812 C 78.683594 286.605469 77.304688 284.402344 75.925781 282.125 M 78.476562 315.433594 C 79.789062 317.84375 81.996094 320.121094 84.753906 320.121094 C 87.441406 320.121094 89.71875 316.328125 87.71875 314.464844 C 83.996094 310.949219 80.269531 307.433594 76.546875 303.914062 C 75.925781 307.847656 76.617188 311.984375 78.476562 315.433594 M 114.542969 296.398438 C 115.027344 298.675781 117.992188 299.710938 120.199219 298.8125 C 122.335938 297.984375 123.785156 295.917969 124.886719 293.847656 C 125.785156 292.054688 126.609375 290.125 126.058594 288.191406 C 125.507812 286.332031 123.09375 284.953125 121.507812 286.125 C 121.371094 290.46875 113.785156 292.125 114.542969 296.398438 M 98.339844 262.265625 C 98.613281 259.851562 98.890625 257.507812 99.164062 255.160156 C 101.164062 254.746094 103.371094 255.160156 105.027344 256.335938 C 105.785156 253.230469 105.921875 249.921875 105.441406 246.75 C 101.371094 249.644531 97.511719 252.816406 93.855469 256.265625 C 93.304688 256.816406 92.683594 257.4375 92.40625 258.195312 C 91.992188 259.574219 92.820312 261.160156 94.132812 261.851562 C 95.371094 262.539062 96.957031 262.539062 98.339844 262.265625 M 10.964844 243.230469 C 8.484375 242.957031 5.105469 243.644531 5.242188 246.128906 C 10.347656 248.679688 16.550781 248.957031 21.929688 246.957031 C 22.550781 246.335938 21.515625 245.4375 20.691406 245.164062 C 17.449219 244.265625 14.207031 243.644531 10.964844 243.230469 M 99.304688 304.605469 C 98.890625 305.847656 99.785156 307.226562 101.027344 307.570312 C 102.269531 307.984375 103.578125 307.5 104.476562 306.605469 C 106.542969 304.535156 106.199219 301.226562 105.785156 298.398438 C 104.0625 299.847656 102.40625 301.296875 100.75 302.742188 C 100.128906 303.296875 99.511719 303.847656 99.304688 304.605469 M 137.09375 280.125 C 137.09375 278.953125 137.160156 277.78125 137.160156 276.675781 C 136.542969 276.332031 135.921875 276.195312 135.230469 276.261719 C 134.472656 278.539062 133.714844 280.816406 132.957031 283.089844 C 134.679688 284.46875 137.714844 282.261719 136.953125 280.195312 M 149.503906 269.089844 C 148.679688 267.503906 145.710938 267.917969 145.367188 269.710938 C 145.023438 271.503906 147.503906 273.023438 148.953125 271.917969 C 149.917969 271.503906 150.195312 269.917969 149.367188 269.230469 M 118.40625 246.472656 C 119.027344 247.300781 120.265625 247.578125 121.164062 247.023438 C 121.992188 246.472656 122.335938 245.230469 121.851562 244.335938 C 120.75 243.714844 119.371094 243.09375 118.199219 243.578125 C 116.957031 244.128906 116.886719 246.402344 118.199219 246.402344 M 94.269531 311.085938 C 94.753906 309.019531 93.511719 306.605469 91.441406 305.777344 C 89.992188 307.984375 91.71875 311.5 94.339844 311.640625 " fill-opacity="1" fill-rule="nonzero"/></g><path fill="#545454" d="M 239.429688 43.179688 C 225.429688 56.972656 211.429688 70.765625 197.433594 84.488281 C 196.671875 83.867188 197.15625 82.695312 197.640625 81.867188 C 210.949219 58.492188 224.257812 35.183594 237.566406 11.875 C 238.875 9.53125 241.082031 6.839844 243.632812 7.53125 C 246.1875 8.289062 246.667969 11.527344 246.738281 14.148438 C 246.738281 18.148438 246.808594 22.078125 246.875 26.011719 C 246.875 28.90625 246.945312 31.804688 245.980469 34.5625 C 244.738281 37.941406 242.046875 40.628906 239.429688 43.179688 " fill-opacity="1" fill-rule="nonzero"/><path fill="#545454" d="M 138.058594 133.105469 C 135.300781 134.207031 132.265625 135.3125 129.578125 134.070312 C 141.714844 127.65625 152.058594 117.863281 159.023438 106.070312 C 160.261719 105.660156 161.023438 107.589844 160.609375 108.832031 C 160.261719 110.070312 159.4375 111.449219 160.125 112.554688 C 168.746094 108.140625 175.777344 100.761719 179.917969 92.003906 C 183.089844 94.832031 178.125 100.832031 180.882812 104.074219 C 185.15625 99.039062 189.433594 93.933594 193.707031 88.902344 C 194.949219 90.695312 193.984375 93.109375 192.878906 94.96875 C 187.15625 104.761719 178.332031 112.484375 168.746094 118.414062 C 159.089844 124.414062 148.539062 128.757812 138.058594 133.105469 " fill-opacity="1" fill-rule="nonzero"/><path fill="#545454" d="M 258.460938 130.070312 C 261.148438 125.65625 262.253906 120.414062 261.5625 115.382812 C 256.597656 122.347656 247.980469 126.621094 239.359375 126.414062 C 248.875 118.414062 255.976562 107.660156 259.703125 95.796875 C 260.117188 96.140625 260.597656 96.417969 261.011719 96.761719 C 261.976562 100.761719 262.941406 104.761719 263.976562 108.691406 C 271.21875 98.347656 276.941406 86.902344 280.941406 74.832031 C 281.492188 73.179688 282.597656 71.109375 284.320312 71.386719 C 282.597656 81.246094 281.148438 91.246094 280.183594 101.3125 C 279.632812 106.96875 279.21875 112.898438 280.941406 118.347656 C 283.21875 113.3125 284.734375 108.003906 285.285156 102.488281 C 286.597656 101.589844 287.835938 103.796875 287.835938 105.382812 C 287.976562 117.035156 283.835938 128.621094 276.390625 137.585938 C 273.289062 133.3125 271.289062 128.277344 270.734375 123.035156 C 266.804688 125.585938 262.667969 127.933594 258.460938 130.070312 " fill-opacity="1" fill-rule="nonzero"/><path fill="#545454" d="M 213.292969 206.339844 C 216.808594 207.097656 220.394531 207.855469 223.980469 208.613281 C 217.566406 210.269531 211.15625 211.855469 204.742188 213.511719 C 205.5 215.304688 206.328125 217.097656 207.085938 218.890625 C 192.605469 214.132812 177.570312 211.304688 162.402344 210.476562 C 164.609375 207.511719 168.8125 207.167969 172.539062 206.960938 C 188.054688 206.132812 204.050781 202.546875 215.914062 192.546875 C 220.808594 188.410156 224.808594 183.304688 229.566406 179.03125 C 237.222656 172.136719 246.875 167.445312 257.011719 165.582031 C 258.738281 165.238281 261.425781 166.203125 260.597656 167.722656 C 246.117188 172.546875 233.152344 181.652344 223.707031 193.511719 C 226.878906 192.753906 230.050781 191.925781 233.222656 191.097656 C 228.53125 198.203125 221.359375 203.648438 213.292969 206.339844 " fill-opacity="1" fill-rule="nonzero"/><g clip-path="url(#2dfb6d38e0)"><path fill="#545454" d="M 204.191406 88.417969 C 228.53125 67.386719 249.425781 42.285156 265.632812 14.496094 C 269.769531 7.460938 276.113281 -0.953125 283.976562 1.253906 C 289.769531 2.910156 292.320312 9.53125 293.628906 15.320312 C 295.835938 25.390625 296.734375 35.734375 296.179688 46.007812 C 294.664062 39.390625 293.148438 32.835938 291.5625 26.21875 C 290.320312 20.769531 287.5625 14.082031 281.976562 14.011719 C 277.078125 14.011719 274.046875 19.253906 272.183594 23.871094 C 265.011719 41.664062 259.21875 60.078125 255.082031 78.832031 C 252.597656 89.9375 250.53125 101.382812 244.53125 111.039062 C 240.324219 117.796875 232.671875 123.863281 225.015625 121.589844 C 227.5 119.242188 230.117188 116.828125 231.566406 113.796875 C 233.015625 110.691406 233.222656 106.761719 231.015625 104.074219 C 227.152344 99.382812 219.636719 101.867188 214.050781 104.347656 C 208.535156 106.898438 200.464844 108.484375 197.570312 103.105469 C 194.742188 98.003906 199.777344 92.210938 204.191406 88.417969 " fill-opacity="1" fill-rule="nonzero"/></g><path fill="#545454" d="M 121.921875 335.980469 C 118.472656 333.429688 115.371094 330.394531 112.75 327.015625 C 116.265625 327.84375 119.714844 328.671875 123.164062 329.570312 C 133.851562 324.121094 144.058594 317.707031 153.503906 310.328125 C 160.882812 304.605469 167.917969 298.332031 176.125 293.777344 C 191.777344 285.089844 210.671875 283.574219 228.324219 286.675781 C 245.980469 289.847656 262.53125 297.363281 278.320312 305.847656 C 255.21875 301.15625 231.429688 298.535156 208.050781 301.363281 C 184.675781 304.261719 161.503906 312.8125 143.851562 328.394531 C 141.367188 330.601562 145.367188 334.257812 148.609375 334.394531 C 151.917969 334.535156 156.261719 334.394531 157.296875 337.5 C 147.503906 340.945312 137.230469 342.808594 126.886719 343.085938 C 128.816406 344.945312 130.75 346.808594 132.679688 348.738281 C 116.820312 348.050781 99.371094 346.808594 87.925781 335.773438 C 93.648438 336.878906 99.441406 337.980469 105.234375 339.015625 C 104.128906 336.328125 103.027344 333.636719 101.992188 330.949219 C 108.128906 333.980469 115.027344 335.707031 121.921875 335.980469 " fill-opacity="1" fill-rule="nonzero"/><path fill="#545454" d="M 286.527344 264.332031 C 299.699219 249.921875 318.042969 240.199219 337.488281 238.058594 C 329.351562 235.027344 321.972656 229.992188 316.179688 223.578125 C 325.488281 226.683594 335.351562 228.0625 345.140625 227.648438 C 330.246094 221.714844 317.835938 209.785156 311.285156 195.097656 C 332.179688 215.097656 363.070312 224.0625 391.414062 218.335938 C 381.828125 230.957031 368.105469 240.335938 352.933594 244.679688 C 366.105469 249.988281 374.933594 262.402344 381.691406 274.882812 C 391.484375 292.8125 398.722656 312.121094 403.207031 332.050781 C 397.136719 317.707031 385.414062 306.121094 371.621094 298.882812 C 357.832031 291.570312 342.109375 288.46875 326.523438 288.46875 C 339.28125 280.261719 355.625 277.78125 370.242188 281.710938 C 350.316406 258.402344 314.109375 250.886719 286.527344 264.332031 " fill-opacity="1" fill-rule="nonzero"/><path fill="#545454" d="M 65.304688 237.09375 C 66.960938 216.132812 86.132812 198.0625 107.164062 197.648438 C 111.578125 197.582031 111.992188 190.203125 108.199219 187.996094 C 104.476562 185.71875 99.71875 187.167969 95.71875 188.960938 C 87.582031 192.546875 79.925781 197.304688 73.167969 203.027344 C 78.0625 192.824219 87.511719 184.890625 98.40625 181.71875 C 106.199219 179.511719 109.441406 170.480469 111.441406 162.617188 C 113.507812 154.757812 116.472656 145.722656 124.199219 143.171875 C 118.335938 152.066406 115.027344 162.6875 114.886719 173.375 C 114.820312 176.617188 115.992188 180.960938 119.300781 181.03125 C 121.507812 181.101562 123.230469 178.894531 123.644531 176.6875 C 123.992188 174.480469 123.371094 172.273438 123.023438 170.066406 C 121.230469 157.652344 128.886719 145.308594 139.300781 138.34375 C 149.710938 131.378906 162.402344 128.757812 174.8125 127.171875 C 176.398438 126.96875 178.8125 128 177.847656 129.3125 C 167.433594 131.3125 158.953125 140.621094 157.851562 151.171875 C 177.296875 147.242188 196.742188 143.308594 216.1875 139.378906 C 212.328125 140.828125 208.535156 142.34375 204.671875 143.792969 C 196.605469 146.828125 188.328125 150.136719 182.535156 156.480469 C 176.746094 162.824219 174.46875 173.238281 179.847656 179.996094 C 160.816406 179.925781 141.988281 188.132812 129.09375 201.996094 C 125.578125 205.71875 120.886719 210.339844 116.265625 208.199219 C 106.542969 203.855469 94.753906 206.890625 86.132812 213.097656 C 77.511719 219.371094 71.304688 228.335938 65.304688 237.09375 M 149.851562 165.308594 C 146.058594 167.238281 142.265625 169.101562 138.402344 170.960938 C 136.195312 172.136719 133.78125 173.308594 132.472656 175.445312 C 131.78125 176.6875 131.4375 178.132812 131.164062 179.511719 C 130.542969 182.753906 130.195312 186.132812 130.128906 189.445312 C 137.921875 181.375 145.644531 173.308594 153.4375 165.238281 C 152.609375 164.273438 151.023438 164.757812 149.851562 165.308594 " fill-opacity="1" fill-rule="nonzero"/><g clip-path="url(#6afe1d32f4)"><path fill="#545454" d="M 352.039062 384.320312 C 354.105469 402.042969 360.796875 419.214844 371.210938 433.765625 C 346.382812 421.972656 331.28125 396.734375 317.695312 372.945312 C 317.421875 386.183594 312.316406 399.355469 303.558594 409.355469 C 303.144531 390.460938 301.148438 371.359375 294.59375 353.636719 C 287.976562 335.914062 276.390625 319.5 260.117188 309.914062 C 279.5625 311.847656 293.355469 329.222656 304.664062 345.222656 C 301.214844 330.742188 299.699219 315.914062 300.113281 301.089844 C 306.179688 324.121094 317.007812 345.910156 331.695312 364.601562 C 329.488281 353.289062 329.488281 341.5 331.625 330.121094 C 335.003906 341.429688 338.382812 352.738281 341.761719 364.046875 C 342.730469 358.1875 343.761719 352.324219 344.796875 346.464844 C 354.660156 377.910156 379.691406 404.113281 410.585938 415.421875 C 407.6875 417.558594 403.550781 416.664062 400.101562 415.5625 C 381.761719 409.421875 365.070312 398.597656 352.039062 384.320312 " fill-opacity="1" fill-rule="nonzero"/></g><g clip-path="url(#78c203c0ba)"><path fill="#545454" d="M 341.28125 104.140625 C 333.351562 109.519531 329.28125 118.898438 326.867188 128.140625 C 324.453125 137.378906 323.351562 146.964844 319.558594 155.722656 C 315.695312 164.410156 308.386719 172.480469 298.941406 173.652344 C 302.664062 169.515625 305.835938 164.824219 308.25 159.859375 C 303.628906 161.515625 298.59375 162.34375 293.628906 162.34375 C 296.042969 157.652344 297.90625 152.757812 299.214844 147.65625 C 294.664062 150.066406 289.835938 152.066406 284.871094 153.585938 C 293.90625 143.035156 296.320312 128.414062 297.285156 114.554688 C 298.527344 95.589844 297.769531 76.558594 294.871094 57.800781 C 300.320312 64.351562 300.042969 74.488281 305.972656 80.625 C 310.457031 85.175781 317.488281 86.351562 323.695312 84.972656 C 329.972656 83.660156 335.488281 80.210938 340.660156 76.488281 C 355.691406 65.664062 369.003906 52.492188 379.828125 37.457031 C 379.207031 51.9375 375.070312 66.28125 367.761719 78.765625 C 400.378906 65.664062 439.203125 61.730469 469.542969 79.453125 C 452.441406 78.144531 434.859375 84.972656 423.136719 97.519531 C 442.925781 96.210938 463.132812 105.105469 475.476562 120.554688 C 443.339844 106.554688 403.480469 115.519531 378.242188 139.792969 C 381.964844 130.277344 388.378906 121.792969 396.585938 115.65625 C 388.171875 115.242188 379.691406 119.726562 375.207031 126.828125 C 376.585938 117.589844 381.964844 109.039062 389.621094 103.660156 C 365.898438 108.003906 344.523438 123.449219 333.003906 144.621094 C 331.28125 130.691406 334.246094 116.277344 341.28125 104.140625 " fill-opacity="1" fill-rule="nonzero"/></g></g></g></svg>